<svg width="19" height="19" viewBox="0 0 19 19" fill="none" xmlns="http://www.w3.org/2000/svg">
<path fill-rule="evenodd" clip-rule="evenodd" d="M13.8363 0.0273438H5.8363C3.07488 0.0273438 0.836304 2.26592 0.836304 5.02734V13.0273C0.836304 15.7887 3.07488 18.0273 5.8363 18.0273H13.8363C16.5977 18.0273 18.8363 15.7887 18.8363 13.0273V5.02734C18.8363 2.26592 16.5977 0.0273438 13.8363 0.0273438ZM17.0863 13.0273C17.0808 14.8199 15.6289 16.2718 13.8363 16.2773H5.8363C4.04365 16.2718 2.59179 14.8199 2.5863 13.0273V5.02734C2.59179 3.23469 4.04365 1.78283 5.8363 1.77734H13.8363C15.6289 1.78283 17.0808 3.23469 17.0863 5.02734V13.0273ZM14.5863 5.27734C15.1386 5.27734 15.5863 4.82962 15.5863 4.27734C15.5863 3.72506 15.1386 3.27734 14.5863 3.27734C14.034 3.27734 13.5863 3.72506 13.5863 4.27734C13.5863 4.82962 14.034 5.27734 14.5863 5.27734ZM9.8363 4.52734C7.35102 4.52734 5.3363 6.54206 5.3363 9.02734C5.3363 11.5126 7.35102 13.5273 9.8363 13.5273C12.3216 13.5273 14.3363 11.5126 14.3363 9.02734C14.339 7.83304 13.8657 6.68691 13.0212 5.84242C12.1767 4.99793 11.0306 4.52468 9.8363 4.52734ZM7.0863 9.02734C7.0863 10.5461 8.3175 11.7773 9.8363 11.7773C11.3551 11.7773 12.5863 10.5461 12.5863 9.02734C12.5863 7.50854 11.3551 6.27734 9.8363 6.27734C8.3175 6.27734 7.0863 7.50854 7.0863 9.02734Z" fill="black"/>
</svg>
