<svg width="19" height="19" viewBox="0 0 19 19" fill="none" xmlns="http://www.w3.org/2000/svg">
<path fill-rule="evenodd" clip-rule="evenodd" d="M2.3363 0.0273438C1.50787 0.0273438 0.836304 0.698914 0.836304 1.52734V16.5273C0.836304 17.3557 1.50787 18.0273 2.3363 18.0273H17.3363C18.1647 18.0273 18.8363 17.3557 18.8363 16.5273V1.52734C18.8363 0.698914 18.1647 0.0273438 17.3363 0.0273438H2.3363ZM6.35706 4.03006C6.36269 4.98631 5.64691 5.57553 4.79753 5.57131C3.99737 5.56709 3.29987 4.93006 3.30409 4.03147C3.30831 3.18631 3.97628 2.50709 4.84394 2.52678C5.72425 2.54647 6.36269 3.19194 6.35706 4.03006ZM10.116 6.7891H7.59601H7.5946V15.3489H10.258V15.1492C10.258 14.7693 10.2577 14.3893 10.2574 14.0092C10.2566 12.9954 10.2557 11.9805 10.2609 10.967C10.2623 10.7209 10.2735 10.465 10.3368 10.2301C10.5744 9.35264 11.3634 8.78594 12.2437 8.92524C12.809 9.01374 13.183 9.34144 13.3405 9.87444C13.4376 10.2076 13.4812 10.5662 13.4854 10.9136C13.4968 11.9612 13.4952 13.0088 13.4936 14.0565C13.493 14.4263 13.4924 14.7963 13.4924 15.1661V15.3475H16.1643V15.1422C16.1643 14.6902 16.1641 14.2383 16.1638 13.7864C16.1633 12.6569 16.1627 11.5274 16.1657 10.3975C16.1671 9.88704 16.1123 9.38364 15.9871 8.89004C15.8001 8.15594 15.4134 7.54844 14.7848 7.10974C14.339 6.79753 13.8496 6.59644 13.3026 6.57394C13.2403 6.57135 13.1775 6.56796 13.1144 6.56455C12.8347 6.54943 12.5504 6.53407 12.283 6.588C11.518 6.74128 10.8459 7.09144 10.3382 7.70874C10.2792 7.77954 10.2215 7.85144 10.1354 7.95874L10.116 7.98304V6.7891ZM3.51794 15.3517H6.16872V6.79467H3.51794V15.3517Z" fill="black"/>
</svg>
