<svg width="21" height="15" viewBox="0 0 21 15" fill="none" xmlns="http://www.w3.org/2000/svg">
<path d="M20.4293 2.98816C20.3154 2.56557 20.0928 2.18017 19.7837 1.87033C19.4746 1.56049 19.0897 1.33702 18.6673 1.22216C17.1013 0.792164 10.8363 0.785164 10.8363 0.785164C10.8363 0.785164 4.57233 0.778164 3.00533 1.18916C2.58325 1.30931 2.19915 1.53594 1.88989 1.8473C1.58064 2.15866 1.35661 2.54428 1.23933 2.96716C0.826328 4.53316 0.822328 7.78116 0.822328 7.78116C0.822328 7.78116 0.818328 11.0452 1.22833 12.5952C1.45833 13.4522 2.13333 14.1292 2.99133 14.3602C4.57333 14.7902 10.8213 14.7972 10.8213 14.7972C10.8213 14.7972 17.0863 14.8042 18.6523 14.3942C19.0748 14.2795 19.4601 14.0565 19.77 13.7473C20.0799 13.4381 20.3037 13.0534 20.4193 12.6312C20.8333 11.0662 20.8363 7.81916 20.8363 7.81916C20.8363 7.81916 20.8563 4.55416 20.4293 2.98816ZM8.83233 10.7902L8.83733 4.79016L14.0443 7.79516L8.83233 10.7902Z" fill="black"/>
</svg>
